<svg id="Ebene_1" data-name="Ebene 1" xmlns="http://www.w3.org/2000/svg" viewBox="0 0 513.32 102.52"><defs><style>.cls-1{fill:#c92518;}</style></defs><title>Logo_T3CMD</title><path d="M281.9,354.24v39.48h-9.34V354.24h-9.82V346h29v8.25Z" transform="translate(-66.7 -342.55)"/><path d="M315.18,372.72v21h-9.55v-21L293.08,346h10.09l7.57,18.41L318.31,346h9.62Z" transform="translate(-66.7 -342.55)"/><path d="M346.61,377.29h-3.89v16.43h-9.34V346s6.89-.68,12.55-.68c12.34,0,15.75,5.73,15.75,15.89C361.68,373.19,356.5,377.29,346.61,377.29Zm.54-23.8a18.66,18.66,0,0,0-4.43.41v15.34H347c3.21,0,5.18-2.93,5.18-7.57C352.2,356.35,351,353.49,347.16,353.49Z" transform="translate(-66.7 -342.55)"/><path d="M383.43,394.4c-13.5,0-16-8.39-16-25.09,0-16,2.86-24,16-24s16,8,16,24C399.39,386,396.93,394.4,383.43,394.4Zm0-41.73c-4.84,0-6.48,3-6.48,17,0,13.77,1.64,17.39,6.48,17.39s6.48-3.61,6.48-17.39C389.91,355.67,388.27,352.67,383.43,352.67Z" transform="translate(-66.7 -342.55)"/><path d="M416.5,394.33a64.85,64.85,0,0,1-9.61-1.16v-7.57a46.79,46.79,0,0,0,8.52,1.16c3.27,0,5.39-2.32,5.39-6.55,0-5.32-1.36-7.57-5.52-7.57H410v-7.43h4.57c3.89,0,5.46-2.39,5.46-6.48,0-3.89-1.36-5.8-4.77-5.8a39.79,39.79,0,0,0-8,1.16v-7.57a53,53,0,0,1,8.93-1.16c8.73,0,13,3.14,13,13.57,0,4.09-1.36,8.32-5.11,9.62,3.75.75,5.93,4.23,5.93,11C429.93,391,424.07,394.33,416.5,394.33Z" transform="translate(-66.7 -342.55)"/><path d="M461.64,393.18a46.14,46.14,0,0,1-8.25,1c-10.43,0-15.14-4.36-15.14-25.09s5.59-23.59,16-23.59a41.31,41.31,0,0,1,7.36,1v8.25a40.74,40.74,0,0,0-8.25-1c-4,0-5.66,1.77-5.66,15.89s1.5,16.43,5.66,16.43a42.37,42.37,0,0,0,8.25-1Z" transform="translate(-66.7 -342.55)"/><path d="M490.89,393.72l-2.18-11.12H477.32l-2.18,11.12h-9.75L476.3,346h13.77l10.43,47.73ZM483,352l-4.09,22.57h8.32Z" transform="translate(-66.7 -342.55)"/><path d="M533.71,393.72V352.87l-5.86,24.82h-7.09l-6.14-24.82v40.85H506.3V346h14.18l4,18.34L528.6,346h13.57v47.73Z" transform="translate(-66.7 -342.55)"/><path d="M564.94,377.29h-3.89v16.43h-9.34V346s6.89-.68,12.55-.68C576.6,345.3,580,351,580,361.19,580,373.19,574.83,377.29,564.94,377.29Zm.54-23.8a18.66,18.66,0,0,0-4.43.41v15.34h4.3c3.21,0,5.18-2.93,5.18-7.57C570.54,356.35,569.38,353.49,565.49,353.49Z" transform="translate(-66.7 -342.55)"/><path class="cls-1" d="M281.26,434.17V409.32L277,424.87h-3.28l-4.23-15.55v24.85h-3.17v-27.7h5.58l3.6,14.16,3.56-14.16h5.46v27.7Z" transform="translate(-66.7 -342.55)"/><path class="cls-1" d="M289.68,434.17v-2.89h2.77V409.36h-2.77v-2.89h9v2.89H295.9v21.92h2.77v2.89Z" transform="translate(-66.7 -342.55)"/><path class="cls-1" d="M310.57,409.48v24.69h-3.44V409.48H301v-3h15.63v3Z" transform="translate(-66.7 -342.55)"/><path class="cls-1" d="M327.39,409.48v24.69h-3.44V409.48h-6.09v-3h15.63v3Z" transform="translate(-66.7 -342.55)"/><path class="cls-1" d="M337.44,434.17v-27.7h13v2.89h-9.54v9.06h8.55v2.89h-8.55v10h9.54v2.89Z" transform="translate(-66.7 -342.55)"/><path class="cls-1" d="M356.15,434.17v-27.7h3.44v24.69h8.82v3Z" transform="translate(-66.7 -342.55)"/><path class="cls-1" d="M380.13,434.17h-7.75v-27.7h7.28c4.55,0,7.2,1.62,7.2,6.17v15.27C386.85,432.47,384.87,434.17,380.13,434.17Zm3.28-21.88a2.71,2.71,0,0,0-2.89-2.85h-4.71V431.2h4.67c2,0,2.93-.87,2.93-2.89Z" transform="translate(-66.7 -342.55)"/><path class="cls-1" d="M393.18,434.17v-27.7h13v2.89h-9.54v9.06h8.55v2.89h-8.55v10h9.54v2.89Z" transform="translate(-66.7 -342.55)"/><path class="cls-1" d="M419.41,434.17h-.59c-4.55,0-7.12-2.22-7.12-6.73v-21h3.44v21.72a3.07,3.07,0,0,0,3.28,3h1.38a3.07,3.07,0,0,0,3.28-3V406.47h3.44v21C426.53,432,424,434.17,419.41,434.17Z" transform="translate(-66.7 -342.55)"/><path class="cls-1" d="M439.83,409.48v24.69h-3.44V409.48h-6.09v-3h15.63v3Z" transform="translate(-66.7 -342.55)"/><path class="cls-1" d="M454,434.17h-5.22v-3h5.62a3.07,3.07,0,0,0,3.28-3v-4.11a2.34,2.34,0,0,0-2.45-2.65h-.79c-3.8,0-6.33-2.22-6.33-6.73v-1.5c0-4.51,2.57-6.73,7.12-6.73h5.26v3h-5.66a3.07,3.07,0,0,0-3.28,3v3a2.74,2.74,0,0,0,2.85,2.85h.79c3.64,0,5.93,2,5.93,6.53v2.61C461.11,432,458.54,434.17,454,434.17Z" transform="translate(-66.7 -342.55)"/><path class="cls-1" d="M473.37,434.17c-4.55,0-7.12-2.22-7.12-6.73V413.2c0-4.51,2.57-6.73,7.12-6.73h4.83v3H473a3.07,3.07,0,0,0-3.28,3v15.75a3.07,3.07,0,0,0,3.28,3h5.22v3Z" transform="translate(-66.7 -342.55)"/><path class="cls-1" d="M494.74,434.17V421.43h-8.15v12.74h-3.44v-27.7h3.44v12h8.15v-12h3.44v27.7Z" transform="translate(-66.7 -342.55)"/><path class="cls-1" d="M504.91,434.17v-27.7h3.44v24.69h8.82v3Z" transform="translate(-66.7 -342.55)"/><path class="cls-1" d="M533,434.17l-1.5-7h-7.71l-1.54,7h-3.52l6.69-27.7H530l6.57,27.7Zm-5.38-25.08-3.21,15.11h6.45Z" transform="translate(-66.7 -342.55)"/><path class="cls-1" d="M550.17,434.17l-6.05-24.77v24.77h-3.21v-27.7h5.62l6.09,24.77V406.47h3.21v27.7Z" transform="translate(-66.7 -342.55)"/><path class="cls-1" d="M570.3,434.17h-7.75v-27.7h7.28c4.55,0,7.2,1.62,7.2,6.17v15.27C577,432.47,575.05,434.17,570.3,434.17Zm3.28-21.88a2.71,2.71,0,0,0-2.89-2.85H566V431.2h4.67c2,0,2.93-.87,2.93-2.89Z" transform="translate(-66.7 -342.55)"/><path d="M219.47,408C208.89,425,196,437.5,188.41,437.5c-16.48,0-39.85-49.68-39.85-71.58,0-3.45.74-6.15,2-7.87,5.66-6.89,23.37-12.3,38.13-14-1.73,1.48-2.95,3.2-2.95,8.36,0,14,17.71,56.16,29.77,56.16a13,13,0,0,0,4-.57m-7.7-65.43c-6.39,0-8.85,1.23-8.85,7.62,0,14,12.55,42.07,22.63,42.07,5.65,0,16.73-21.16,16.73-38.63,0-8.61-15.26-11.07-30.51-11.07" transform="translate(-66.7 -342.55)"/><path id="_Pfad_" data-name="&lt;Pfad&gt;" class="cls-1" d="M156.88,417.34A170.32,170.32,0,0,1,144.43,384c-5.26-.76-11.71.57-18.59,7.12-5.22,5-10,14.79-26.88,10.43,0,0,7.77,15.86,26.39,4.59,0,0,.08,14.09-20.51,10.59-6.79-1.15-18.37-7-27.46-2.19-3.15,1.65-10.1,6.63-10.67,9.42,0,0,13.54-14.6,36.83,4.71,5.82,4.83,12.63,14.83,27.73,12.14,0,0,5.47.26,15.36-8.16,0,0,3.89,2.26-9,12.39,0,0,18.2-2.73,27.34-13.31A144.32,144.32,0,0,1,156.88,417.34Z" transform="translate(-66.7 -342.55)"/></svg>